<?xml version="1.0" encoding="UTF-8" standalone="no"?>
<svg
   version="1.1"
   width="70"
   height="70"
   viewBox="0,0,70,70"
   id="svg17"
   sodipodi:docname="icon.svg"
   inkscape:export-filename="icon.png"
   inkscape:export-xdpi="192"
   inkscape:export-ydpi="192"
   inkscape:version="1.1.2 (0a00cf5339, 2022-02-04)"
   xmlns:inkscape="http://www.inkscape.org/namespaces/inkscape"
   xmlns:sodipodi="http://sodipodi.sourceforge.net/DTD/sodipodi-0.dtd"
   xmlns:xlink="http://www.w3.org/1999/xlink"
   xmlns="http://www.w3.org/2000/svg"
   xmlns:svg="http://www.w3.org/2000/svg">
  <sodipodi:namedview
     id="namedview19"
     pagecolor="#ffffff"
     bordercolor="#666666"
     borderopacity="1.0"
     inkscape:pageshadow="2"
     inkscape:pageopacity="0.0"
     inkscape:pagecheckerboard="0"
     showgrid="false"
     inkscape:zoom="2.9266632"
     inkscape:cx="26.822355"
     inkscape:cy="-4.2710757"
     inkscape:window-width="2486"
     inkscape:window-height="1016"
     inkscape:window-x="74"
     inkscape:window-y="27"
     inkscape:window-maximized="1"
     inkscape:current-layer="svg17" />
  <!-- Generated with https://ivantodorovich.github.io/odoo-icon -->
  <defs
     id="defs7">
    <linearGradient
       x1="70"
       y1="0"
       x2="0"
       y2="70"
       gradientUnits="userSpaceOnUse"
       id="color-1">
      <stop
         offset="0"
         stop-color="#d85060"
         id="stop2" />
      <stop
         offset="1"
         stop-color="#a51d2d"
         id="stop4" />
    </linearGradient>
    <path
       id="icon-a"
       d="M4,5.35309892e-14 C36.4160122,9.87060235e-15 58.0836068,-3.97961823e-14 65,5.07020818e-14 C69,6.733808e-14 70,1 70,5 C70,43.0488877 70,62.4235458 70,65 C70,69 69,70 65,70 C61,70 9,70 4,70 C1,70 7.10542736e-15,69 7.10542736e-15,65 C7.25721566e-15,62.4676575 3.83358709e-14,41.8005206 3.60818146e-14,5 C-1.13686838e-13,1 1,5.75716207e-14 4,5.35309892e-14 Z" />
    <linearGradient
       id="icon-c"
       x1="70"
       x2="0"
       y1="0"
       y2="70"
       gradientUnits="userSpaceOnUse"
       gradientTransform="translate(-101.44858,8.9474237)">
      <stop
         offset="0%"
         stop-color="#269396"
         id="stop16" />
      <stop
         offset="100%"
         stop-color="#218689"
         id="stop18" />
    </linearGradient>
    <path
       id="icon-d"
       d="M35.5,22.75 C39.6529297,22.75 43.0195312,26.1166016 43.0195312,30.2695312 C43.0195312,34.4224609 39.6529297,37.7890625 35.5,37.7890625 C31.3470703,37.7890625 27.9804687,34.4224609 27.9804687,30.2695312 C27.9804687,26.1166016 31.3470703,22.75 35.5,22.75 Z M43.6256055,38.3165755 L40.7623112,37.6007161 C37.2411654,40.1333659 32.9730794,39.5681836 30.2377604,37.6007161 L27.3744661,38.3165755 C25.0790039,38.8904232 23.46875,40.9527799 23.46875,43.3188542 L23.46875,47.671875 C23.46875,49.0957161 24.6230339,50.25 26.046875,50.25 L44.953125,50.25 C46.3769661,50.25 47.53125,49.0957161 47.53125,47.671875 L47.53125,43.3188542 C47.53125,40.9527799 45.9209961,38.8904232 43.6256055,38.3165755 Z M50.3958333,39.6510417 C53.1644531,39.6510417 55.4088542,37.4066406 55.4088542,34.6380208 C55.4088542,31.869401 53.1644531,29.625 50.3958333,29.625 C47.6272135,29.625 45.3828125,31.869401 45.3828125,34.6380208 C45.3828125,37.4066406 47.6272135,39.6510417 50.3958333,39.6510417 Z M20.6041667,39.6510417 C23.3727865,39.6510417 25.6171875,37.4066406 25.6171875,34.6380208 C25.6171875,31.869401 23.3727865,29.625 20.6041667,29.625 C17.8355469,29.625 15.5911458,31.869401 15.5911458,34.6380208 C15.5911458,37.4066406 17.8355469,39.6510417 20.6041667,39.6510417 Z M22.3229167,47.671875 L22.3229167,43.3188542 C22.3229167,42.1335612 22.6518424,41.0125781 23.2326367,40.0533008 C21.0850586,41.1074674 18.6968555,40.6769206 17.0959831,39.5255013 L15.1870964,40.0027409 C13.6568359,40.3852344 12.5833333,41.7602344 12.5833333,43.3375456 L12.5833333,46.2395833 C12.5833333,47.1888346 13.352832,47.9583333 14.3020833,47.9583333 L22.3350195,47.9583333 C22.3273388,47.8630362 22.3233016,47.7674804 22.3229167,47.671875 Z M55.8129036,40.0026693 L53.9040169,39.5254297 C51.9041797,40.9638802 49.5434049,40.902793 47.7604883,40.0423437 C48.3454362,41.004056 48.6770833,42.1289779 48.6770833,43.3188542 L48.6770833,47.671875 C48.6770833,47.7683398 48.6722135,47.8636589 48.6649805,47.9583333 L56.6979167,47.9583333 C57.647168,47.9583333 58.4166667,47.1888346 58.4166667,46.2395833 L58.4166667,43.3375456 C58.4166667,41.7602344 57.3431641,40.3852344 55.8129036,40.0026693 Z" />
    <path
       id="icon-e"
       d="M35.5,20.75 C39.6529297,20.75 43.0195312,24.1166016 43.0195312,28.2695312 C43.0195312,32.4224609 39.6529297,35.7890625 35.5,35.7890625 C31.3470703,35.7890625 27.9804687,32.4224609 27.9804687,28.2695312 C27.9804687,24.1166016 31.3470703,20.75 35.5,20.75 Z M43.6256055,36.3165755 L40.7623112,35.6007161 C37.2411654,38.1333659 32.9730794,37.5681836 30.2377604,35.6007161 L27.3744661,36.3165755 C25.0790039,36.8904232 23.46875,38.9527799 23.46875,41.3188542 L23.46875,45.671875 C23.46875,47.0957161 24.6230339,48.25 26.046875,48.25 L44.953125,48.25 C46.3769661,48.25 47.53125,47.0957161 47.53125,45.671875 L47.53125,41.3188542 C47.53125,38.9527799 45.9209961,36.8904232 43.6256055,36.3165755 Z M50.3958333,37.6510417 C53.1644531,37.6510417 55.4088542,35.4066406 55.4088542,32.6380208 C55.4088542,29.869401 53.1644531,27.625 50.3958333,27.625 C47.6272135,27.625 45.3828125,29.869401 45.3828125,32.6380208 C45.3828125,35.4066406 47.6272135,37.6510417 50.3958333,37.6510417 Z M20.6041667,37.6510417 C23.3727865,37.6510417 25.6171875,35.4066406 25.6171875,32.6380208 C25.6171875,29.869401 23.3727865,27.625 20.6041667,27.625 C17.8355469,27.625 15.5911458,29.869401 15.5911458,32.6380208 C15.5911458,35.4066406 17.8355469,37.6510417 20.6041667,37.6510417 Z M22.3229167,45.671875 L22.3229167,41.3188542 C22.3229167,40.1335612 22.6518424,39.0125781 23.2326367,38.0533008 C21.0850586,39.1074674 18.6968555,38.6769206 17.0959831,37.5255013 L15.1870964,38.0027409 C13.6568359,38.3852344 12.5833333,39.7602344 12.5833333,41.3375456 L12.5833333,44.2395833 C12.5833333,45.1888346 13.352832,45.9583333 14.3020833,45.9583333 L22.3350195,45.9583333 C22.3273388,45.8630362 22.3233016,45.7674804 22.3229167,45.671875 Z M55.8129036,38.0026693 L53.9040169,37.5254297 C51.9041797,38.9638802 49.5434049,38.902793 47.7604883,38.0423437 C48.3454362,39.004056 48.6770833,40.1289779 48.6770833,41.3188542 L48.6770833,45.671875 C48.6770833,45.7683398 48.6722135,45.8636589 48.6649805,45.9583333 L56.6979167,45.9583333 C57.647168,45.9583333 58.4166667,45.1888346 58.4166667,44.2395833 L58.4166667,41.3375456 C58.4166667,39.7602344 57.3431641,38.3852344 55.8129036,38.0026693 Z" />
    <mask
       id="icon-b"
       fill="#ffffff">
      <use
         xlink:href="#icon-a"
         id="use25"
         x="0"
         y="0"
         width="100%"
         height="100%" />
    </mask>
  </defs>
  <g
     fill="none"
     fill-rule="nonzero"
     stroke="none"
     stroke-width="1"
     stroke-linecap="butt"
     stroke-linejoin="miter"
     stroke-miterlimit="10"
     stroke-dasharray=""
     stroke-dashoffset="0"
     font-family="none"
     font-weight="none"
     font-size="none"
     text-anchor="none"
     style="mix-blend-mode: normal"
     id="g15">
    <path
       d="M3.5,70c-1.933,0 -3.5,-1.567 -3.5,-3.5v-63c0,-1.933 1.567,-3.5 3.5,-3.5h63c1.933,0 3.5,1.567 3.5,3.5v63c0,1.933 -1.567,3.5 -3.5,3.5z"
       id="box"
       fill="url(#color-1)" />
    <path
       d="M65,1h-61c-1.95033,0 -3.2667,0.63396 -3.9491,1.90189c0.28378,-1.64806 1.72001,-2.90189 3.4491,-2.90189h63c1.72965,0 3.16627,1.25466 3.44938,2.90352c-0.69803,-1.26902 -2.34782,-1.90352 -4.94938,-1.90352z"
       id="topBoxShadow"
       fill="#ffffff"
       opacity="0.383" />
    <path
       d="M4,69h61c2.66667,0 4.33333,-1 5,-3v0.5c0,1.933 -1.567,3.5 -3.5,3.5h-63c-1.933,0 -3.5,-1.567 -3.5,-3.5c0,-0.1611 0,-0.32777 0,-0.5c0.66667,2 2,3 4,3z"
       id="bottomBoxShadow"
       fill="#000000"
       opacity="0.383" />
    <path
       d="M20.88691,48.64852v-15.32237h6.89337c2.92132,0.52278 5.84304,2.10865 8.76436,3.94693h5.35376c2.42367,0.14475 3.69332,2.60231 1.33665,4.21609c-1.87617,1.37812 -4.35367,1.29916 -6.89337,1.07107c-1.75136,-0.08733 -1.82592,2.26616 0,2.27413c0.63562,0.04985 1.32388,-0.09929 1.92522,-0.09929c3.16656,-0.00479 5.77724,-0.6101 7.37468,-3.11312l0.80151,-1.87138l7.96365,-3.94653c3.98442,-1.31152 6.8188,2.85513 3.88074,5.75611c-5.76887,4.19576 -11.68328,7.64863 -17.73328,10.43756c-4.39474,2.67289 -8.79028,2.58118 -13.18103,0zM47.33231,24.48243c0.82105,0 1.47821,0.23527 1.97905,0.70142c0.49845,0.46854 0.75007,1.09021 0.75007,1.8674c0,0.77439 -0.25162,1.39845 -0.75007,1.865c-0.50084,0.46814 -1.158,0.70142 -1.97905,0.70142c-0.82105,0 -1.4814,-0.23327 -1.98144,-0.70142c-0.49845,-0.46894 -0.74768,-1.09061 -0.74768,-1.865c0,-0.77718 0.24923,-1.39885 0.74768,-1.8674c0.50005,-0.46615 1.16079,-0.70142 1.98144,-0.70142zM45.65712,20.39793h2.2211l-6.50458,8.8469h-2.2211zM47.33231,26.25931c-0.24005,0 -0.42428,0.07098 -0.55149,0.20616c-0.12601,0.14156 -0.19101,0.33257 -0.19101,0.58857c0,0.25242 0.0646,0.44621 0.19101,0.58498c0.12681,0.13877 0.31143,0.20656 0.55149,0.20656c0.23766,0 0.42229,-0.07058 0.54909,-0.20656c0.12601,-0.13877 0.19101,-0.33257 0.19101,-0.58498c0,-0.256 -0.0654,-0.4498 -0.19101,-0.58857c-0.12362,-0.13837 -0.30824,-0.20616 -0.54909,-0.20616zM39.66933,21.80914c-0.24085,0 -0.42308,0.07058 -0.54909,0.20656c-0.12601,0.13837 -0.19101,0.33257 -0.19101,0.58498c0,0.25281 0.0646,0.4498 0.19101,0.58817c0.12601,0.13558 0.30824,0.20656 0.54909,0.20656c0.24005,0 0.42428,-0.07098 0.55069,-0.20656c0.12601,-0.14156 0.18782,-0.33536 0.18782,-0.58817c0,-0.25242 -0.06141,-0.44661 -0.18782,-0.58498c-0.12282,-0.13598 -0.30744,-0.20656 -0.55069,-0.20656zM39.66853,20.03187c0.82105,0 1.4814,0.23288 1.98224,0.70182c0.49765,0.46854 0.74688,1.09021 0.74688,1.865c0,0.77718 -0.24923,1.39885 -0.74688,1.8674c-0.50084,0.46854 -1.16119,0.70142 -1.98224,0.70142c-0.82025,0 -1.47821,-0.23527 -1.97905,-0.70142c-0.49845,-0.46854 -0.75007,-1.09021 -0.75007,-1.8674c0,-0.77439 0.25162,-1.39845 0.75007,-1.865c0.50084,-0.46854 1.1592,-0.70182 1.97905,-0.70182zM10.5,31.85312h8.31176v18.33501h-8.31176z"
       id="shadow"
       fill="#000000"
       opacity="0.3" />
    <path
       d="M20.88691,31.32614l4.20823,0l12.5365,-12.5365c0.0189,-0.0189 0.03818,-0.03755 0.05784,-0.05595c0.50084,-0.46854 1.1592,-0.70182 1.97905,-0.70182c0.82105,0 1.4814,0.23288 1.98224,0.70182c0.49765,0.46854 0.74688,1.09021 0.74688,1.865c0,0.57082 -0.13444,1.05774 -0.40301,1.46172l3.66248,-3.66248h2.2211l-6.26741,8.52432l3.68553,-3.68553c0.01783,-0.01783 0.03601,-0.03546 0.05454,-0.05287c0.50005,-0.46615 1.16079,-0.70142 1.98144,-0.70142c0.82105,0 1.47821,0.23527 1.97905,0.70142c0.49845,0.46854 0.75007,1.09021 0.75007,1.8674c0,0.74384 -0.23216,1.34898 -0.69223,1.80905l-8.41278,8.41278h0.94198c2.21046,0.13202 3.46101,2.18784 1.87608,3.77277l-3.59528,3.59528c0.58779,-0.06319 1.14906,-0.16188 1.68005,-0.30672l4.58383,-4.58383l7.96365,-3.94653c3.9739,-1.30806 6.80383,2.83316 3.90389,5.7331l-30.46285,30.46285h-24.34776c-1.933,0 -3.5,-1.567 -3.5,-3.5l0,-26.14688l10.5,-10.5h8.31176l0,3.54817z"
       id="flatShadow"
       fill="#000000"
       opacity="0.324" />
    <path
       d="M20.88691,46.64852v-15.32237h6.89337c2.92132,0.52278 5.84304,2.10865 8.76436,3.94693h5.35376c2.42367,0.14475 3.69332,2.60231 1.33665,4.21609c-1.87617,1.37812 -4.35367,1.29916 -6.89337,1.07107c-1.75136,-0.08733 -1.82592,2.26616 0,2.27413c0.63562,0.04985 1.32388,-0.09929 1.92522,-0.09929c3.16656,-0.00479 5.77724,-0.6101 7.37468,-3.11312l0.80151,-1.87138l7.96365,-3.94653c3.98442,-1.31152 6.8188,2.85513 3.88074,5.75611c-5.76887,4.19576 -11.68328,7.64863 -17.73328,10.43756c-4.39474,2.67289 -8.79028,2.58118 -13.18103,0zM47.33231,22.48243c0.82105,0 1.47821,0.23527 1.97905,0.70142c0.49845,0.46854 0.75007,1.09021 0.75007,1.8674c0,0.77439 -0.25162,1.39845 -0.75007,1.865c-0.50084,0.46814 -1.158,0.70142 -1.97905,0.70142c-0.82105,0 -1.4814,-0.23327 -1.98144,-0.70142c-0.49845,-0.46894 -0.74768,-1.09061 -0.74768,-1.865c0,-0.77718 0.24923,-1.39885 0.74768,-1.8674c0.50005,-0.46615 1.16079,-0.70142 1.98144,-0.70142zM45.65712,18.39793h2.2211l-6.50458,8.8469h-2.2211zM47.33231,24.25931c-0.24005,0 -0.42428,0.07098 -0.55149,0.20616c-0.12601,0.14156 -0.19101,0.33257 -0.19101,0.58857c0,0.25242 0.0646,0.44621 0.19101,0.58498c0.12681,0.13877 0.31143,0.20656 0.55149,0.20656c0.23766,0 0.42229,-0.07058 0.54909,-0.20656c0.12601,-0.13877 0.19101,-0.33257 0.19101,-0.58498c0,-0.256 -0.0654,-0.4498 -0.19101,-0.58857c-0.12362,-0.13837 -0.30824,-0.20616 -0.54909,-0.20616zM39.66933,19.80914c-0.24085,0 -0.42308,0.07058 -0.54909,0.20656c-0.12601,0.13837 -0.19101,0.33257 -0.19101,0.58498c0,0.25281 0.0646,0.4498 0.19101,0.58817c0.12601,0.13558 0.30824,0.20656 0.54909,0.20656c0.24005,0 0.42428,-0.07098 0.55069,-0.20656c0.12601,-0.14156 0.18782,-0.33536 0.18782,-0.58817c0,-0.25242 -0.06141,-0.44661 -0.18782,-0.58498c-0.12282,-0.13598 -0.30744,-0.20656 -0.55069,-0.20656zM39.66853,18.03187c0.82105,0 1.4814,0.23288 1.98224,0.70182c0.49765,0.46854 0.74688,1.09021 0.74688,1.865c0,0.77718 -0.24923,1.39885 -0.74688,1.8674c-0.50084,0.46854 -1.16119,0.70142 -1.98224,0.70142c-0.82025,0 -1.47821,-0.23527 -1.97905,-0.70142c-0.49845,-0.46854 -0.75007,-1.09021 -0.75007,-1.8674c0,-0.77439 0.25162,-1.39845 0.75007,-1.865c0.50084,-0.46854 1.1592,-0.70182 1.97905,-0.70182zM10.5,29.85312h8.31176v18.33501h-8.31176z"
       id="icon"
       fill="#ffffff" />
  </g>
  <use
     fill="#ffffff"
     fill-rule="nonzero"
     xlink:href="#icon-e"
     id="use38"
     x="0"
     y="0"
     width="100%"
     height="100%"
     transform="matrix(0.62768238,0,0,0.62768238,32.692645,36.964905)" />
</svg>
